<svg xmlns="http://www.w3.org/2000/svg" xmlns:xlink="http://www.w3.org/1999/xlink" width="127.8" height="112.4" viewBox="0 0 1217295 1070610">
<path d="M1151063 1069651 L66507 1069651 L40857 1064470 L19895 1050346 L5754 1029409 L567 1003789 L1188 994820 L2980 986485 L5837 978570 L9653 970859 L551946 32807 L569170 13118 L591735 2157 L616860 567 L641766 8987 L649012 13667 L655404 19197 L660942 25577 L665628 32807 L1207917 970859 L1216326 995738 L1214725 1020834 L1184029 1060576 L1160062 1069031 L1151063 1069651 Z" fill="none" fill-rule="evenodd" stroke="#23201D" stroke-width="1135"/>
<path d="M614120 21970 L571257 43053 L27857 982235 L22179 995848 L22179 1003790 L25746 1020777 L35386 1034890 L49505 1044529 L66507 1048098 L1160180 1048098 L1193708 1015154 L1194908 998477 L1189709 982235 L647446 43053 L614120 21970 Z" fill="#EB3C00" fill-rule="evenodd"/>
<path d="M608800 240637 L217698 916339 L999877 916339 L608800 240637 Z" fill="#FFFFFF" fill-rule="evenodd"/>
<path d="M575826 518877 L509888 518877 L509888 626776 L445080 692638 L445080 873207 L509888 873207 L509888 719905 L575826 654030 L575826 518877 Z M707665 518889 L641764 518889 L641764 873207 L707665 873207 L707665 518889 Z" fill="#23201D" fill-rule="evenodd"/>
</svg>