<svg xmlns="http://www.w3.org/2000/svg" version="1.1" id="svg4154" viewBox="0 0 137.07225 200.35146" height="56.543636mm" width="38.684834mm">
  <defs id="defs4156">
    </defs>
  <g transform="translate(88.823173,-266.61216)" id="layer1">
    <g id="layer1-5" transform="translate(2804.1127,-385.08618)">
      </g>
    <g id="layer1-3" transform="translate(3356.3256,-598.33825)">
      <path d="m -3314.6403,1064.7224 c 3.2914,0 5.9843,-2.8042 5.9843,-6.232 l 0,-186.7281 c 0,-3.42782 -2.6929,-6.23242 -5.9843,-6.23242 l -123.9452,0 c -3.2912,0 -5.9838,2.8046 -5.9838,6.23242 l 0,186.7281 c 0,3.4278 2.6926,6.232 5.9838,6.232 l 123.9452,0 z" style="fill:#ffffff;fill-opacity:1;fill-rule:nonzero;stroke:#000000;stroke-width:1.15894592;stroke-linecap:butt;stroke-linejoin:miter;stroke-miterlimit:2.61313009;stroke-dasharray:none;stroke-opacity:1" id="path8355" />
      <path id="path8357" style="fill:#0000cc;fill-opacity:1;fill-rule:nonzero;stroke:none" d="m -3315.3806,1060.82 c 1.6458,0 2.9921,-1.4025 2.9921,-3.1164 l 0,-185.17 c 0,-1.7138 -1.3463,-3.116 -2.9921,-3.116 l -122.4489,0 c -1.6456,0 -2.9919,1.4022 -2.9919,3.116 l 0,185.17 c 0,1.7139 1.3463,3.1164 2.9919,3.1164 z" />
      <path id="path5732" style="fill:#ffffff;fill-opacity:1;fill-rule:nonzero;stroke:none" d="m -3418.1166,992.38843 81.3679,0 0,-101.67486 -81.3679,0 0,101.67486 z" />
      <g id="layer1-7" transform="translate(-350.16908,132.29779)">
        </g>
      <g transform="translate(-146.10846,-2.5859905)" id="g10957">
        <g id="g10406" transform="matrix(1.7716449,0,0,-1.7715069,-3261.6614,946.19818)" style="fill:#000000">
          <path d="M 0,0 7.8,11.46 2.28,0" style="fill:#000000;fill-opacity:1;fill-rule:evenodd;stroke:none" id="path10408" />
        </g>
        <g id="g10410" transform="matrix(1.7716449,0,0,-1.7715069,-3250.9253,942.79689)" style="fill:#000000">
          <path d="M 0,0 1.8,9.54 -0.96,0" style="fill:#000000;fill-opacity:1;fill-rule:evenodd;stroke:none" id="path10412" />
        </g>
        <g id="g10414" transform="matrix(1.7716449,0,0,-1.7715069,-3245.7166,952.6819)" style="fill:#000000">
          <path d="M 0,0 -1.14,15.12 1.5,0" style="fill:#000000;fill-opacity:1;fill-rule:evenodd;stroke:none" id="path10416" />
        </g>
        <g id="g10418" transform="matrix(1.7716449,0,0,-1.7715069,-3233.7049,911.97267)" style="fill:#000000">
          <path d="m 0,0 -2.22,1.5 -4.86,-5.88 1.86,-1.8" style="fill:#000000;fill-opacity:1;fill-rule:evenodd;stroke:none" id="path10420" />
        </g>
        <g id="g10422" transform="matrix(1.7716449,0,0,-1.7715069,-3236.0435,929.29801)" style="fill:#000000">
          <path d="M 0,0 -1.56,4.02 1.74,7.98 5.7,6.78" style="fill:#000000;fill-opacity:1;fill-rule:evenodd;stroke:none" id="path10424" />
        </g>
        <g id="g10426" transform="matrix(1.7716449,0,0,-1.7715069,-3212.6577,950.98124)" style="fill:#000000">
          <path d="M 0,0 -12.06,11.22 -6.3,18.12 7.32,8.7" style="fill:#000000;fill-opacity:1;fill-rule:evenodd;stroke:none" id="path10428" />
        </g>
        <g id="g10430" transform="matrix(1.7716449,0,0,-1.7715069,-3210.6381,952.6819)" style="fill:#000000">
          <path d="M 0,0 7.38,8.88 C 8.1,4.8 5.4,0.78 1.26,0.06 0.78,0 0.36,0 0,0" style="fill:#000000;fill-opacity:1;fill-rule:evenodd;stroke:none" id="path10432" />
        </g>
        <g id="g10434" transform="matrix(1.7716449,0,0,-1.7715069,-3254.6457,986.16336)" style="fill:#000000">
          <path d="m 0,0 -1.68,3.66 1.92,3.84 -5.7,7.56 2.76,-5.7 -2.76,-5.7" style="fill:#000000;fill-opacity:1;fill-rule:evenodd;stroke:none" id="path10436" />
        </g>
        <g id="g10438" transform="matrix(1.7716449,0,0,-1.7715069,-3250.9253,972.87706)" style="fill:#000000">
          <path d="M 0,0 -3.78,7.56 3.72,0 -1.98,-7.5" style="fill:#000000;fill-opacity:1;fill-rule:evenodd;stroke:none" id="path10440" />
        </g>
        <g id="g10442" transform="matrix(1.7716449,0,0,-1.7715069,-3254.2205,986.16336)" style="fill:#000000">
          <path d="m 0,0 5.58,3.66 1.92,3.84 0,3.78 1.86,-3.78 0,-3.84" style="fill:#000000;fill-opacity:1;fill-rule:evenodd;stroke:none" id="path10444" />
        </g>
      </g>
    </g>
  </g>
</svg>